# xmcd CD database file
#
# Track frame offsets:
#	150
#	11922
#	22545
#	33435
#	40740
#	53857
#	61985
#	70457
#	80697
#	90965
#	104775
#	115855
#	125020
#	135215
#	163875
#	173432
#
# Disc length: 2438 seconds
#
# Revision: 1
# Processed by: cddbd v1.5.2PL0 Copyright (c) Steve Scherf et al.
# Submitted via: CDex 1.81
#
DISCID=cc098410
DTITLE=Fats Domino - Best Of
DYEAR=2000
DGENRE=Blues
TTITLE0=I'm Walking
TTITLE1=Blueberry Hill
TTITLE2=Ain't That A Shame
TTITLE3=Whole Lotta Lovin'
TTITLE4=When The Saints Go Marching In
TTITLE5=Sheek Of Arabi
TTITLE6=I'm In Love Again
TTITLE7=Blue Monday
TTITLE8=I Want To Walk You Home
TTITLE9=Poor Me
TTITLE10=Song For Rose Mary
TTITLE11=My Girl Josephine
TTITLE12=Let The Four Winds Blow
TTITLE13=All By Myself
TTITLE14=Oh What A Price
TTITLE15=My Blue Heaven
EXTD=YEAR: 2000
EXTT0=
EXTT1=
EXTT2=
EXTT3=
EXTT4=
EXTT5=
EXTT6=
EXTT7=
EXTT8=
EXTT9=
EXTT10=
EXTT11=
EXTT12=
EXTT13=
EXTT14=
EXTT15=
PLAYORDER=
